<?xml version="1.0" standalone="no"?>
<!DOCTYPE svg PUBLIC "-//W3C//DTD SVG 20010904//EN"
 "http://www.w3.org/TR/2001/REC-SVG-20010904/DTD/svg10.dtd">
<svg version="1.0" xmlns="http://www.w3.org/2000/svg"
 width="210.000000pt" height="210.000000pt" viewBox="0 0 210.000000 210.000000"
 preserveAspectRatio="xMidYMid meet">

<g transform="translate(0.000000,210.000000) scale(0.100000,-0.100000)"
fill="#000000" stroke="none">
<path d="M908 1946 c-279 -50 -515 -221 -642 -466 -56 -109 -84 -199 -98 -321
-28 -248 62 -512 238 -699 286 -303 737 -365 1104 -153 89 52 246 209 299 300
125 212 160 452 101 682 -81 317 -326 559 -647 642 -100 25 -258 32 -355 15z
m307 -221 c213 -45 408 -219 476 -426 34 -104 35 -300 2 -404 -65 -205 -244
-376 -449 -429 -82 -21 -256 -21 -337 0 -225 58 -402 238 -462 469 -19 76 -19
231 1 315 44 191 201 372 384 444 114 45 260 57 385 31z"/>
<path d="M940 1675 c-275 -67 -460 -302 -460 -583 0 -204 102 -393 272 -502
146 -95 343 -121 503 -66 259 89 414 303 415 571 0 330 -269 597 -600 594 -41
0 -100 -7 -130 -14z m446 -261 c52 -25 77 -74 72 -140 -4 -42 -11 -61 -33 -84
-76 -79 -200 -57 -240 44 -50 124 77 239 201 180z m-450 -25 c41 -38 57 -77
51 -125 -6 -58 -38 -99 -92 -120 -106 -40 -207 44 -192 158 6 41 44 92 82 109
38 17 123 4 151 -22z m497 -408 c40 -38 42 -42 42 -98 0 -74 -26 -114 -90
-139 -39 -14 -52 -15 -87 -5 -165 50 -132 281 40 281 48 0 57 -4 95 -39z
m-520 15 c78 -32 112 -115 78 -191 -36 -81 -132 -111 -208 -64 -44 27 -63 66
-63 128 0 100 100 166 193 127z"/>
</g>
</svg>
