<?xml version="1.0" standalone="no"?>
<!DOCTYPE svg PUBLIC "-//W3C//DTD SVG 20010904//EN"
 "http://www.w3.org/TR/2001/REC-SVG-20010904/DTD/svg10.dtd">
<svg version="1.0" xmlns="http://www.w3.org/2000/svg"
 width="510.000000pt" height="510.000000pt" viewBox="0 0 510.000000 510.000000"
 preserveAspectRatio="xMidYMid meet">

<g transform="translate(0.000000,510.000000) scale(0.100000,-0.100000)"
fill="#000000" stroke="none">
<path d="M3540 4902 c-59 -16 -121 -48 -126 -65 -4 -12 2 -27 15 -41 14 -15
21 -35 21 -62 l0 -40 -57 -12 c-122 -27 -382 -36 -1009 -34 -577 2 -642 0
-770 -18 -76 -10 -182 -31 -234 -45 -52 -14 -144 -37 -205 -50 -60 -14 -125
-29 -142 -34 -31 -9 -34 -7 -49 24 -17 37 -49 50 -88 35 -31 -11 -35 -53 -10
-106 16 -33 16 -34 -15 -59 -17 -15 -40 -44 -53 -66 -19 -35 -26 -39 -60 -39
l-38 0 0 -55 c0 -33 -7 -69 -17 -88 -22 -44 -100 -255 -129 -351 -27 -88 -31
-198 -12 -301 9 -54 9 -69 -5 -104 -23 -57 -22 -164 2 -216 24 -51 68 -93 117
-110 l39 -13 3 -281 c2 -203 -1 -281 -9 -281 -7 0 -8 -6 -3 -17 4 -10 10 -154
13 -320 l6 -303 30 -29 c17 -17 57 -45 90 -63 l60 -34 0 -169 0 -170 -45 -22
c-72 -37 -144 -32 -296 21 -75 26 -149 60 -181 82 -105 72 -186 197 -222 341
-45 180 -35 277 38 353 48 51 78 52 129 6 47 -43 84 -115 90 -178 6 -58 -8
-78 -55 -78 -45 0 -74 -16 -66 -36 8 -22 97 -12 133 14 21 16 25 28 28 81 6
130 -99 271 -202 271 -73 0 -151 -108 -163 -224 -7 -65 19 -215 52 -303 32
-86 80 -158 149 -226 66 -65 137 -103 280 -152 97 -33 117 -37 190 -33 57 2
94 9 124 24 23 12 44 18 47 14 2 -4 12 -50 21 -101 24 -142 30 -139 50 21 4
30 13 72 20 94 9 24 14 82 14 159 0 81 5 140 16 178 16 56 19 60 85 99 l69 41
1 172 c3 610 2 587 30 648 29 61 81 119 132 146 30 16 87 18 752 20 396 1 811
7 922 13 231 13 277 6 355 -53 89 -68 136 -169 145 -318 12 -189 -86 -367
-353 -639 -72 -74 -146 -157 -163 -185 -67 -107 -109 -298 -126 -574 l-7 -113
-1324 5 -1324 5 2 -322 3 -321 2349 -3 2349 -2 -6 112 c-4 62 -7 209 -7 326
l0 212 -268 0 -269 0 -6 764 c-4 420 -4 778 -1 795 6 29 8 31 44 25 32 -5 40
-2 58 21 22 28 22 30 22 551 l0 524 73 1 c97 1 159 8 174 21 20 16 16 66 -6
78 -11 5 -55 10 -99 10 -44 0 -93 3 -110 6 l-30 6 -4 188 c-3 173 -5 191 -24
217 -27 36 -61 36 -88 0 -18 -25 -22 -47 -27 -175 -4 -81 -7 -149 -8 -152 0
-3 -26 32 -56 77 -102 153 -231 270 -361 330 -33 14 -76 37 -96 51 l-38 25 0
225 c0 216 1 227 21 248 30 32 19 51 -48 81 -46 21 -76 27 -143 29 -47 2 -96
0 -110 -4z m-90 -414 c0 -142 -3 -167 -19 -194 -12 -20 -16 -36 -10 -46 6 -11
-2 -20 -34 -38 -90 -49 -217 -143 -307 -226 -52 -47 -117 -104 -145 -124 -102
-78 -289 -148 -457 -170 -96 -13 -843 -10 -870 4 -16 7 -18 25 -18 162 l0 154
-192 2 -193 3 -3 138 -3 137 -102 0 c-130 0 -142 7 -132 77 9 67 38 88 157
113 51 10 163 37 248 59 263 67 362 75 895 67 494 -7 985 6 1095 28 36 8 71
14 78 15 9 1 12 -38 12 -161z m-2544 -184 c-6 -15 -56 -20 -56 -5 0 5 12 24
28 42 l27 33 3 -28 c2 -15 1 -34 -2 -42z m2990 -235 c98 -51 134 -96 134 -166
-1 -72 -34 -123 -124 -186 -30 -21 -34 -57 -8 -79 9 -9 74 -43 143 -76 146
-69 161 -85 167 -176 5 -74 -13 -103 -70 -113 -64 -10 -122 51 -88 92 14 17
50 20 50 5 0 -5 -8 -10 -18 -10 -27 0 -33 -10 -20 -34 15 -29 28 -36 65 -36
47 0 63 22 63 86 0 91 -13 105 -163 177 -151 73 -176 94 -161 135 9 25 7 28
-25 37 -18 6 -43 22 -54 37 -17 23 -18 31 -8 56 12 30 48 53 79 51 9 0 1 -7
-18 -16 -39 -17 -50 -29 -50 -57 0 -54 84 -75 147 -36 41 25 76 93 76 147 0
61 -39 107 -127 150 -60 29 -78 34 -120 29 -92 -10 -151 -64 -238 -216 -33
-57 -114 -237 -139 -309 -47 -133 -127 -226 -243 -282 -44 -21 -94 -42 -113
-45 -18 -3 -33 -9 -33 -13 0 -14 97 -81 174 -120 106 -54 230 -82 391 -88 162
-7 196 4 224 69 29 66 35 131 16 168 -32 62 -133 102 -201 80 -37 -13 -48 -35
-42 -91 2 -26 8 -35 26 -37 27 -4 30 -22 3 -22 -33 0 -51 28 -51 79 0 38 5 52
26 72 61 57 215 13 257 -74 16 -32 17 -46 8 -103 -5 -36 -19 -80 -30 -99 l-19
-33 56 -21 c61 -22 270 -166 339 -234 142 -137 184 -408 92 -588 -64 -126
-234 -219 -328 -180 -35 15 -110 -8 -256 -80 -118 -59 -168 -104 -195 -176
-29 -79 -27 -153 6 -193 36 -42 74 -60 128 -60 116 0 171 157 71 204 -40 19
-66 20 -84 4 -11 -11 -13 -10 -9 2 6 21 61 24 101 5 55 -26 71 -82 43 -150
l-15 -35 40 0 c23 0 56 -7 75 -16 42 -20 111 -94 130 -141 l15 -36 18 29 c38
61 109 104 171 104 68 0 111 -84 79 -154 -13 -28 -54 -42 -75 -25 -15 12 -20
69 -6 69 4 0 8 -12 7 -27 0 -23 4 -28 25 -28 48 0 63 83 23 127 -20 22 -92 24
-131 4 -35 -18 -78 -64 -90 -96 -5 -14 -7 -66 -5 -116 6 -103 -5 -136 -60
-178 -73 -56 -192 -74 -239 -36 -33 25 -52 73 -44 106 18 71 105 99 145 48 22
-28 27 -59 12 -68 -4 -3 -6 5 -4 18 3 16 -2 31 -16 45 -37 37 -89 23 -116 -29
-14 -26 -14 -34 -1 -64 21 -49 56 -70 111 -64 57 7 153 55 178 89 28 38 32
106 13 192 -20 87 -61 156 -120 199 -45 32 -28 31 -236 12 -57 -5 -69 -3 -100
18 -19 13 -45 39 -58 58 -20 29 -23 44 -19 85 9 85 37 152 80 194 42 42 228
140 307 162 25 7 48 15 52 18 4 3 2 28 -3 55 -12 65 5 128 46 172 36 37 83 46
105 19 16 -19 5 -34 -12 -17 -53 53 -140 -68 -123 -169 12 -68 61 -84 163 -54
63 19 151 97 182 160 87 180 56 408 -74 553 -45 48 -213 175 -309 232 -41 24
-48 24 -237 25 -246 1 -312 14 -470 92 -98 49 -125 68 -193 136 -43 44 -103
111 -134 148 -43 54 -64 71 -95 80 -101 27 -201 -45 -184 -134 5 -28 4 -30 -8
-15 -12 16 -14 16 -35 -6 -30 -32 -126 -83 -173 -91 -23 -4 -43 -16 -53 -31
-26 -40 -71 -57 -134 -51 -60 5 -74 10 -251 82 -108 44 -120 47 -186 43 -83
-6 -166 -45 -196 -93 -27 -45 -24 -110 7 -140 16 -17 19 -25 10 -25 -43 0 -63
107 -31 167 18 36 101 89 155 99 70 14 141 123 141 218 0 43 -36 111 -66 124
-51 24 -91 15 -134 -28 -60 -60 -54 -130 11 -130 15 0 31 5 34 10 12 20 26 10
15 -10 -24 -46 -120 -6 -120 49 0 59 84 141 144 141 128 -1 173 -174 81 -309
l-34 -49 38 -6 c21 -3 87 -26 147 -52 149 -63 188 -74 254 -74 43 0 64 5 84
21 29 23 34 39 10 39 -25 0 -72 54 -79 92 -14 73 42 138 118 138 33 0 61 -33
53 -63 -6 -24 -36 -46 -36 -27 0 6 5 10 10 10 15 0 12 46 -4 59 -22 18 -92 -4
-112 -35 -23 -34 -14 -112 16 -136 34 -27 109 -24 173 8 84 43 107 63 135 123
31 63 70 95 132 105 76 12 111 -6 187 -95 136 -162 114 -145 170 -131 89 23
188 79 240 135 52 58 78 103 119 212 47 123 151 328 202 396 60 80 111 109
193 109 44 0 70 -7 115 -31z m-3176 -283 l0 -265 -52 -24 c-69 -31 -73 -25
-73 128 1 106 4 129 29 195 15 41 39 110 54 153 14 42 30 77 34 77 4 0 8 -119
8 -264z m-4 -524 c-3 -3 -14 3 -25 12 -16 14 -18 23 -10 49 15 55 34 53 37 -4
2 -28 1 -54 -2 -57z"/>
</g>
</svg>
