<?xml version="1.0" standalone="no"?>
<!DOCTYPE svg PUBLIC "-//W3C//DTD SVG 20010904//EN"
 "http://www.w3.org/TR/2001/REC-SVG-20010904/DTD/svg10.dtd">
<svg version="1.0" xmlns="http://www.w3.org/2000/svg"
 width="444.000000pt" height="444.000000pt" viewBox="0 0 444.000000 444.000000"
 preserveAspectRatio="xMidYMid meet">

<g transform="translate(0.000000,444.000000) scale(0.100000,-0.100000)"
fill="#000000" stroke="none">
<path d="M2157 4160 c-51 -15 -57 -27 -51 -89 8 -68 -7 -102 -61 -150 -42 -37
-175 -105 -225 -116 -49 -11 -126 -51 -134 -70 -18 -48 -7 -80 44 -123 58 -50
71 -86 94 -267 41 -310 32 -427 -45 -611 -74 -179 -108 -371 -76 -434 9 -18
38 -35 107 -63 103 -42 193 -61 338 -72 l92 -7 0 -844 c0 -685 -2 -846 -13
-850 -7 -2 -30 2 -50 11 -46 19 -257 33 -257 17 0 -6 26 -16 58 -22 83 -17
123 -30 117 -41 -4 -5 -18 -9 -33 -9 -33 0 -175 -35 -202 -50 -32 -17 -14 -29
27 -19 79 18 301 41 363 37 63 -4 102 -18 276 -99 45 -21 54 -23 54 -10 0 15
-99 81 -168 112 -36 16 -62 32 -59 35 3 3 64 -6 136 -21 163 -33 188 -29 99
14 -51 25 -88 34 -162 42 -53 5 -101 7 -105 4 -5 -2 -12 2 -15 11 -3 9 -6 391
-6 850 0 686 2 834 13 834 50 0 242 24 291 36 67 17 146 54 165 78 8 9 20 16
27 16 23 0 27 48 15 160 -12 112 -43 204 -149 440 -39 87 -47 151 -33 268 22
194 57 306 133 421 72 111 66 133 -50 180 -103 41 -176 88 -232 147 -59 63
-69 93 -47 152 15 44 15 45 -8 67 -14 12 -42 27 -63 33 -45 14 -163 14 -205 2z"/>
</g>
</svg>
