<?xml version="1.0" standalone="no"?>
<!DOCTYPE svg PUBLIC "-//W3C//DTD SVG 20010904//EN"
 "http://www.w3.org/TR/2001/REC-SVG-20010904/DTD/svg10.dtd">
<svg version="1.0" xmlns="http://www.w3.org/2000/svg"
 width="366.000000pt" height="366.000000pt" viewBox="0 0 366.000000 366.000000"
 preserveAspectRatio="xMidYMid meet">

<g transform="translate(0.000000,366.000000) scale(0.100000,-0.100000)"
fill="#000000" stroke="none">
<path d="M3320 3052 c-200 -168 -366 -332 -992 -977 -245 -253 -557 -572 -692
-709 -135 -137 -244 -252 -241 -256 7 -11 -44 -31 -96 -37 -47 -6 -192 16
-282 42 -82 24 -174 75 -236 131 -58 53 -141 164 -141 188 0 14 11 20 259 132
258 117 440 226 627 375 194 156 258 264 225 385 -21 78 -71 120 -201 170 -68
25 -87 28 -195 28 -101 -1 -134 -5 -209 -28 -274 -83 -427 -184 -531 -351 -78
-126 -90 -174 -90 -370 0 -164 6 -208 41 -298 3 -9 -20 -30 -64 -59 -107 -72
-243 -184 -288 -240 -91 -111 -134 -252 -104 -343 17 -51 73 -111 133 -142 65
-32 174 -55 199 -42 27 15 18 45 -12 42 -42 -4 -147 27 -194 57 -94 60 -113
173 -51 296 19 38 53 90 75 116 60 70 294 248 325 248 6 0 26 -26 45 -57 49
-83 152 -182 235 -225 89 -46 173 -72 303 -92 104 -17 183 -12 230 13 12 7 24
4 41 -10 54 -44 170 -11 231 66 63 80 289 324 482 520 364 369 543 559 668
710 68 82 161 190 205 240 86 96 171 198 220 265 17 22 66 85 111 139 75 91
151 207 142 216 -2 2 -82 -62 -178 -143z m-1819 -588 c75 -22 139 -57 173 -93
24 -25 30 -42 34 -89 7 -98 -37 -163 -202 -296 -158 -128 -369 -260 -528 -332
-45 -20 -146 -66 -222 -101 -108 -50 -141 -61 -147 -51 -32 50 -55 267 -40
378 31 235 176 409 429 515 192 80 378 106 503 69z m89 -1283 c0 -4 -10 -20
-21 -35 -28 -36 -50 -19 -25 18 16 25 46 36 46 17z"/>
</g>
</svg>
