<?xml version="1.0" standalone="no"?>
<!DOCTYPE svg PUBLIC "-//W3C//DTD SVG 20010904//EN"
 "http://www.w3.org/TR/2001/REC-SVG-20010904/DTD/svg10.dtd">
<svg version="1.0" xmlns="http://www.w3.org/2000/svg"
 width="366.000000pt" height="366.000000pt" viewBox="0 0 366.000000 366.000000"
 preserveAspectRatio="xMidYMid meet">

<g transform="translate(0.000000,366.000000) scale(0.100000,-0.100000)"
fill="#000000" stroke="none">
<path d="M346 2915 c-21 -7 -57 -31 -79 -52 -134 -128 -94 -347 76 -418 l37
-15 3 -793 2 -792 30 -82 c17 -45 32 -83 35 -83 3 0 18 37 33 83 l27 83 0 795
0 795 34 12 c44 16 104 75 127 126 22 48 24 130 7 190 -16 55 -99 138 -154
154 -54 16 -129 15 -178 -3z"/>
<path d="M3080 2911 c-72 -26 -133 -89 -154 -161 -20 -67 -20 -83 0 -149 19
-66 79 -133 139 -158 l45 -18 3 -795 2 -795 32 -85 c18 -50 34 -79 37 -70 49
127 46 71 46 941 l0 807 37 13 c82 27 153 136 153 235 0 173 -174 294 -340
235z"/>
<path d="M1245 2905 c-141 -52 -206 -219 -139 -353 28 -56 80 -106 132 -124
l32 -12 0 -783 0 -784 24 -57 c13 -31 29 -75 36 -97 l13 -40 29 85 28 84 0
796 0 796 34 16 c198 95 199 363 3 465 -43 22 -143 26 -192 8z"/>
<path d="M2197 2906 c-133 -50 -202 -179 -166 -310 22 -79 93 -154 163 -172
l26 -6 3 -802 2 -801 32 -80 c17 -45 33 -73 36 -65 51 148 47 77 47 944 l0
801 55 29 c148 77 178 270 61 394 -64 69 -177 99 -259 68z"/>
</g>
</svg>
