<?xml version="1.0" standalone="no"?>
<!DOCTYPE svg PUBLIC "-//W3C//DTD SVG 20010904//EN"
 "http://www.w3.org/TR/2001/REC-SVG-20010904/DTD/svg10.dtd">
<svg version="1.0" xmlns="http://www.w3.org/2000/svg"
 width="650.000000pt" height="650.000000pt" viewBox="0 0 650.000000 650.000000"
 preserveAspectRatio="xMidYMid meet">

<g transform="translate(0.000000,650.000000) scale(0.100000,-0.100000)"
fill="#000000" stroke="none">
<path d="M1330 6051 c-77 -5 -101 -10 -127 -29 -17 -12 -50 -29 -71 -36 -60
-21 -119 -66 -276 -211 -24 -22 -51 -58 -60 -80 -10 -22 -28 -51 -41 -65 -13
-14 -28 -42 -34 -64 -5 -21 -21 -55 -34 -75 -16 -23 -27 -57 -31 -94 -3 -31
-17 -101 -31 -155 -29 -112 -30 -143 -9 -232 8 -36 23 -104 33 -151 11 -48 26
-97 34 -110 9 -13 26 -51 38 -84 12 -33 30 -71 41 -85 10 -14 34 -45 53 -70
19 -25 41 -59 49 -75 28 -59 251 -248 326 -277 14 -5 41 -20 60 -33 51 -34
191 -59 330 -59 143 1 467 29 483 42 7 5 30 13 52 16 34 6 50 2 100 -25 57
-30 75 -43 163 -114 51 -42 166 -115 181 -115 6 0 42 -23 78 -50 63 -47 123
-120 123 -147 0 -24 -55 -139 -81 -170 l-28 -33 4 -172 c4 -167 5 -174 28
-194 13 -11 38 -49 56 -83 l32 -63 -21 -42 c-27 -52 -95 -122 -141 -146 -19
-10 -41 -25 -48 -34 -7 -8 -29 -20 -49 -27 -20 -6 -54 -27 -75 -45 -20 -19
-40 -34 -45 -34 -4 0 -25 -16 -46 -35 -22 -19 -45 -35 -51 -35 -6 0 -22 -12
-36 -26 -58 -64 -152 -66 -374 -9 -126 33 -137 34 -300 32 -156 -2 -174 -4
-215 -26 -25 -12 -69 -31 -99 -42 -30 -10 -59 -24 -66 -29 -7 -6 -30 -19 -51
-29 -44 -22 -82 -55 -196 -170 -138 -141 -156 -161 -169 -194 -7 -18 -21 -40
-30 -50 -9 -10 -21 -36 -28 -58 -7 -22 -25 -59 -41 -82 -22 -32 -31 -58 -36
-107 -3 -36 -17 -96 -30 -134 -30 -87 -32 -180 -5 -258 21 -61 38 -139 45
-206 3 -25 15 -57 29 -76 14 -18 30 -50 36 -73 6 -22 20 -48 32 -59 12 -10 28
-32 36 -48 32 -62 191 -219 255 -252 15 -8 44 -25 63 -39 20 -13 62 -29 93
-35 31 -7 84 -23 117 -37 50 -21 77 -25 165 -26 92 0 116 3 195 30 50 17 110
34 135 38 25 4 59 17 75 30 17 12 53 27 81 34 33 8 62 23 80 42 15 16 33 29
40 29 19 0 115 68 160 114 23 22 64 59 93 81 28 22 60 58 71 80 27 54 58 99
101 149 24 27 38 55 43 83 3 23 15 57 26 76 12 20 26 75 35 138 8 57 24 145
35 194 27 122 26 214 -4 328 -14 50 -29 121 -34 157 -6 43 -20 81 -39 112 -16
25 -35 72 -43 103 -12 52 -12 58 7 93 12 20 56 64 99 97 44 34 95 76 115 95
143 137 193 176 301 234 26 15 52 34 57 44 5 10 35 28 65 41 l57 23 71 -26
c39 -15 83 -35 97 -45 14 -10 42 -23 61 -30 19 -6 44 -22 55 -35 11 -13 37
-29 58 -35 21 -7 60 -28 88 -47 28 -19 56 -34 62 -34 5 0 24 -11 41 -23 17
-13 45 -28 62 -34 17 -6 51 -25 74 -42 24 -17 48 -31 55 -31 7 0 34 -17 61
-37 27 -21 50 -36 52 -35 9 11 64 -14 87 -38 16 -17 38 -30 50 -30 12 0 37
-11 56 -25 19 -13 44 -32 56 -40 12 -9 28 -18 36 -19 7 -1 36 -16 63 -33 27
-17 60 -34 74 -38 14 -4 39 -18 55 -30 17 -12 45 -27 62 -33 18 -6 48 -22 66
-36 19 -14 48 -31 66 -37 18 -7 58 -27 89 -45 31 -19 60 -34 65 -34 5 0 25
-14 44 -30 18 -17 44 -30 56 -30 25 0 87 -35 87 -49 0 -10 22 -19 67 -27 15
-3 44 -21 65 -40 21 -18 47 -34 59 -34 25 0 55 -16 87 -45 14 -13 38 -26 55
-29 17 -3 51 -19 76 -35 25 -16 62 -32 82 -35 20 -4 44 -15 54 -26 9 -10 40
-27 69 -36 28 -9 60 -22 71 -28 67 -41 104 -36 125 18 21 56 13 90 -32 135
-22 23 -53 50 -67 59 -14 9 -32 25 -40 35 -8 11 -37 30 -65 44 -93 45 -136 71
-175 105 -21 18 -53 42 -71 53 -88 53 -106 66 -125 88 -11 14 -34 32 -51 40
-52 27 -154 97 -154 107 0 5 -9 12 -20 15 -11 4 -40 23 -64 43 -24 20 -58 46
-76 57 -84 51 -103 64 -133 93 -18 18 -37 32 -42 32 -16 0 -128 75 -167 113
-21 20 -44 37 -50 37 -14 0 -139 84 -162 109 -11 12 -25 21 -32 21 -7 0 -34
18 -59 40 -25 22 -53 40 -60 40 -8 0 -29 13 -47 29 -18 15 -47 35 -64 44 -17
9 -34 23 -38 32 -3 9 -20 22 -38 30 -18 7 -50 27 -71 44 -21 16 -47 33 -57 36
-10 3 -26 17 -35 31 -9 14 -36 34 -61 44 -44 19 -84 68 -84 103 0 28 61 77
163 132 26 14 47 30 47 35 0 5 15 17 33 26 17 9 43 28 57 42 14 14 61 46 105
71 44 25 94 60 110 76 17 17 46 39 65 50 94 55 115 70 138 96 13 16 29 29 35
29 7 0 30 16 51 35 22 19 47 35 56 35 15 0 94 53 155 105 44 38 126 93 160
109 17 8 40 25 51 38 12 12 52 41 89 63 37 22 85 57 107 78 21 20 44 37 51 37
7 0 28 13 47 30 19 16 40 29 46 30 7 0 34 20 62 45 27 25 54 45 59 45 6 0 17
8 26 18 9 10 36 28 60 40 24 12 51 30 61 41 10 11 32 25 49 32 18 7 48 25 67
41 19 15 41 28 48 28 8 0 36 23 64 50 28 28 54 50 58 50 22 0 36 93 20 134
-10 28 -12 28 -73 24 -44 -2 -72 -10 -94 -26 -17 -12 -53 -27 -81 -33 -28 -5
-62 -21 -77 -35 -14 -13 -38 -26 -53 -30 -46 -10 -74 -24 -93 -48 -10 -13 -38
-28 -63 -35 -24 -6 -57 -22 -73 -35 -16 -14 -50 -30 -75 -36 -26 -7 -57 -23
-69 -36 -12 -13 -41 -29 -63 -35 -22 -6 -55 -24 -73 -40 -18 -15 -48 -31 -67
-34 -19 -4 -47 -20 -62 -36 -15 -16 -32 -29 -38 -29 -18 0 -198 -91 -219 -111
-11 -10 -36 -22 -54 -25 -18 -3 -46 -19 -61 -35 -15 -17 -46 -34 -70 -41 -24
-6 -55 -22 -68 -35 -13 -13 -43 -31 -66 -39 -23 -8 -52 -23 -63 -34 -11 -10
-42 -28 -70 -40 -27 -12 -59 -30 -70 -40 -11 -11 -40 -26 -65 -35 -24 -9 -51
-21 -60 -29 -8 -7 -35 -21 -59 -30 -25 -10 -59 -30 -77 -45 -17 -16 -48 -31
-67 -35 -21 -4 -45 -17 -56 -32 -11 -13 -39 -31 -64 -40 -24 -8 -55 -26 -67
-40 -13 -13 -29 -24 -36 -24 -6 0 -39 -18 -72 -40 -33 -22 -66 -40 -75 -40 -9
0 -29 -11 -45 -25 -66 -55 -121 -59 -184 -11 -25 19 -57 38 -70 41 -14 4 -39
22 -57 41 -18 19 -37 34 -43 34 -19 0 -210 151 -314 247 -40 38 -47 43 -116
96 -43 32 -56 77 -39 129 6 18 11 36 11 41 -1 12 27 61 48 85 13 15 22 44 26
92 4 39 18 107 31 153 33 111 33 215 0 362 -14 62 -29 154 -34 205 -5 51 -13
95 -17 99 -15 10 -39 53 -58 103 -9 25 -24 52 -32 59 -8 7 -22 28 -30 47 -7
19 -25 46 -39 61 -14 14 -58 63 -96 109 -39 46 -87 94 -107 107 -21 13 -48 35
-61 49 -13 14 -28 26 -34 26 -5 0 -24 10 -41 23 -17 13 -47 29 -66 37 -19 7
-50 26 -68 42 -22 18 -44 28 -66 28 -18 0 -60 14 -92 31 -52 27 -73 32 -184
39 -135 10 -155 10 -300 1z m382 -286 c24 -17 61 -36 84 -43 23 -6 53 -23 68
-37 15 -14 32 -25 38 -25 16 0 248 -239 248 -255 0 -7 16 -36 35 -64 19 -28
35 -56 35 -62 0 -6 16 -48 36 -92 34 -73 38 -93 47 -216 11 -145 -2 -335 -26
-376 -63 -109 -97 -150 -151 -177 -23 -11 -53 -31 -67 -43 -18 -15 -52 -25
-113 -34 -47 -7 -89 -17 -92 -22 -7 -11 -127 -12 -140 -1 -5 5 -40 14 -79 21
-74 13 -198 67 -281 124 -55 37 -207 188 -241 238 -13 19 -32 54 -44 79 -12
25 -35 60 -50 78 -17 19 -29 44 -29 61 0 15 -16 59 -36 96 -34 64 -37 76 -41
174 -5 119 3 158 60 284 27 60 52 96 108 154 41 42 89 82 108 90 19 8 50 27
70 43 20 15 45 31 56 33 11 3 95 5 187 4 l166 -2 44 -30z m1473 -2325 c16 -6
35 -30 52 -64 l26 -54 -30 -74 c-35 -82 -61 -107 -121 -115 -66 -9 -103 4
-156 52 l-49 46 6 81 c5 62 11 87 26 101 40 40 174 55 246 27z m-1190 -1178
c33 -17 65 -32 72 -32 17 0 153 -119 153 -134 0 -7 13 -25 30 -41 49 -47 55
-79 54 -311 0 -176 -3 -219 -18 -257 -9 -25 -24 -51 -32 -58 -8 -6 -21 -36
-30 -65 -8 -30 -31 -77 -50 -105 -19 -28 -34 -55 -34 -60 0 -12 -80 -115 -132
-169 -41 -43 -68 -62 -147 -104 -20 -10 -50 -31 -67 -46 -20 -17 -48 -29 -76
-33 -25 -4 -63 -17 -84 -29 -55 -32 -203 -33 -284 -2 -30 12 -73 27 -95 33
-30 8 -68 37 -152 118 -97 93 -116 117 -139 173 -46 114 -54 156 -51 269 3 97
6 111 35 166 18 33 32 69 32 81 0 24 48 124 60 124 4 0 11 11 14 25 4 14 22
42 41 62 19 21 35 41 35 46 0 13 231 238 271 264 47 31 84 48 239 109 25 10
72 13 165 11 125 -2 132 -4 190 -35z"/>
</g>
</svg>
