<?xml version="1.0" standalone="no"?>
<!DOCTYPE svg PUBLIC "-//W3C//DTD SVG 20010904//EN"
 "http://www.w3.org/TR/2001/REC-SVG-20010904/DTD/svg10.dtd">
<svg version="1.0" xmlns="http://www.w3.org/2000/svg"
 width="446.000000pt" height="446.000000pt" viewBox="0 0 446.000000 446.000000"
 preserveAspectRatio="xMidYMid meet">

<g transform="translate(0.000000,446.000000) scale(0.100000,-0.100000)"
fill="#000000" stroke="none">
<path d="M2500 4075 c-124 -8 -328 -28 -455 -45 -302 -42 -316 -44 -344 -59
-23 -13 -23 -14 -20 -159 l4 -147 59 -69 c32 -38 75 -85 95 -105 20 -20 49
-51 65 -70 27 -34 28 -34 169 -52 560 -68 1101 -65 1657 11 219 30 236 36 321
113 41 36 94 81 119 99 25 19 55 49 68 68 22 33 23 41 18 155 -7 160 -6 152
-19 163 -34 27 -230 57 -472 73 -550 35 -951 43 -1265 24z"/>
<path d="M3840 3383 c-287 -55 -829 -89 -1185 -73 -220 9 -507 33 -620 50 -86
14 -93 13 -75 -4 17 -16 167 -50 320 -73 139 -20 755 -29 952 -14 79 6 238 13
353 16 231 6 364 21 371 40 3 7 4 28 2 47 l-3 33 -115 -22z"/>
<path d="M1994 3294 c4 -16 12 -34 18 -41 15 -19 114 -53 156 -54 32 -1 34 -2
12 -8 -25 -7 -25 -7 8 -19 18 -6 97 -19 175 -28 161 -18 549 -16 568 3 8 8 -8
13 -57 18 -38 4 -73 8 -79 11 -5 2 26 1 70 -3 144 -14 261 -7 435 27 91 17
208 39 260 48 l95 17 -70 3 c-38 2 -174 -4 -302 -12 -304 -21 -739 -21 -926
-1 -132 15 -313 46 -353 62 -15 5 -16 2 -10 -23z m644 -111 c-49 -2 -127 -2
-175 0 -49 1 -9 3 87 3 96 0 136 -2 88 -3z"/>
<path d="M3615 3240 c-211 -37 -411 -73 -485 -87 l-35 -7 50 -6 c68 -9 259 6
374 30 76 16 329 86 376 104 35 14 -91 -1 -280 -34z"/>
<path d="M1695 3251 c-207 -74 -467 -267 -537 -397 -56 -104 -75 -266 -44
-384 8 -30 14 -56 13 -57 -1 -1 -29 16 -62 38 -33 22 -96 54 -140 71 -71 29
-91 32 -180 32 -114 0 -173 -17 -277 -80 -81 -49 -236 -203 -276 -274 -55 -99
-72 -167 -72 -289 0 -213 75 -363 260 -518 204 -171 414 -195 645 -75 84 44
233 188 282 272 67 115 79 262 34 425 -11 38 -18 71 -17 73 6 6 46 -97 70
-181 60 -205 61 -361 5 -627 -68 -322 -64 -477 13 -639 46 -97 148 -195 258
-248 173 -84 336 -123 511 -123 87 0 109 3 109 14 0 21 -23 26 -113 26 -100 0
-225 21 -332 56 -207 68 -325 156 -394 294 -74 149 -78 299 -15 581 65 290 59
497 -22 741 -40 118 -98 225 -168 306 -60 70 -106 207 -106 315 0 196 79 318
304 469 175 116 298 165 389 153 80 -11 177 -44 177 -60 0 -8 25 -32 57 -54
53 -38 61 -41 122 -40 36 0 86 4 111 7 l45 7 -75 32 c-41 17 -99 36 -128 43
-28 7 -55 17 -58 22 -11 17 -105 55 -181 72 -90 20 -144 19 -208 -3z m-874
-741 c81 -15 229 -92 296 -154 48 -44 68 -74 111 -162 28 -60 61 -145 73 -189
27 -103 29 -261 6 -324 -38 -100 -180 -257 -288 -319 -101 -57 -171 -74 -289
-70 -94 3 -112 6 -173 35 -165 78 -309 232 -368 393 -21 56 -24 83 -24 196 l0
131 47 94 c102 205 330 369 524 378 17 0 56 -3 85 -9z"/>
<path d="M3820 3229 c-181 -55 -245 -72 -345 -90 l-100 -17 134 -1 c143 -1
422 17 432 28 4 3 9 30 12 59 6 49 5 52 -16 51 -12 0 -65 -14 -117 -30z"/>
<path d="M3805 3119 c-44 -4 -298 -7 -565 -8 -358 -1 -517 -5 -609 -16 -68 -8
-126 -16 -128 -19 -2 -2 25 -9 62 -15 265 -46 723 -56 1004 -20 153 19 300 55
326 80 5 6 5 8 0 7 -6 0 -46 -4 -90 -9z"/>
<path d="M2390 3104 c32 -11 65 -13 118 -8 40 3 72 8 70 9 -2 1 -55 5 -118 8
-111 6 -114 5 -70 -9z"/>
<path d="M3890 3099 c-123 -56 -342 -89 -636 -96 -263 -7 -615 18 -749 53 -16
4 -17 3 -4 -5 8 -6 78 -26 155 -46 l139 -37 270 6 c274 5 390 16 672 61 225
36 213 33 213 61 0 29 -3 29 -60 3z"/>
<path d="M2022 3093 c2 -12 14 -19 33 -21 l30 -3 -25 20 c-31 25 -42 26 -38 4z"/>
<path d="M2240 3061 l-95 -6 47 -31 c46 -30 51 -31 199 -37 84 -4 177 -7 208
-6 l56 0 -105 33 c-58 18 -118 38 -133 45 -16 6 -40 10 -55 9 -15 -1 -70 -4
-122 -7z"/>
<path d="M2030 3051 c0 -5 8 -12 18 -14 16 -4 16 -5 0 -6 -10 0 -18 -5 -18
-10 0 -13 83 -23 109 -13 l23 8 -23 16 c-29 18 -109 32 -109 19z m97 -37 c-3
-3 -12 -4 -19 -1 -8 3 -5 6 6 6 11 1 17 -2 13 -5z"/>
<path d="M3805 3025 c-249 -45 -456 -67 -680 -74 l-220 -6 95 -20 c79 -17 133
-20 315 -20 227 0 279 6 472 51 140 32 173 47 166 73 -3 12 -8 21 -12 20 -3
-1 -64 -12 -136 -24z"/>
<path d="M2030 2977 c0 -24 4 -26 58 -32 87 -10 96 -15 15 -10 l-73 5 0 -40
c0 -38 2 -40 41 -50 161 -44 213 -50 437 -50 146 0 221 3 217 10 -3 6 -18 10
-32 10 -42 0 -224 40 -299 66 -39 13 -84 24 -100 25 -23 0 -25 2 -10 8 34 13
-44 52 -127 62 -39 5 -84 11 -99 15 -25 5 -28 3 -28 -19z m213 -54 c-13 -2
-33 -2 -45 0 -13 2 -3 4 22 4 25 0 35 -2 23 -4z"/>
<path d="M2290 2966 c0 -3 22 -17 49 -31 70 -35 285 -55 631 -60 250 -3 262
-2 135 7 -77 5 -194 16 -260 23 l-120 14 110 -5 c61 -3 119 -7 130 -10 15 -4
16 -3 5 4 -32 19 -194 43 -361 52 -201 11 -213 11 -179 -1 27 -9 -75 -3 -117
7 -13 4 -23 4 -23 0z m228 -23 c-10 -2 -28 -2 -40 0 -13 2 -5 4 17 4 22 1 32
-1 23 -4z m80 -10 c-10 -2 -28 -2 -40 0 -13 2 -5 4 17 4 22 1 32 -1 23 -4z
m105 -10 c-13 -2 -35 -2 -50 0 -16 2 -5 4 22 4 28 0 40 -2 28 -4z"/>
<path d="M3885 2939 c-56 -17 -164 -41 -311 -68 -33 -6 -83 -11 -111 -11 -58
0 -375 -39 -383 -47 -3 -3 148 -3 335 0 273 4 360 8 440 23 l100 19 3 53 c2
28 -1 52 -5 51 -4 0 -35 -9 -68 -20z"/>
<path d="M2490 2881 c22 -13 251 -49 355 -56 52 -3 133 0 190 8 l100 13 -140
7 c-232 12 -468 27 -495 32 -18 4 -21 3 -10 -4z"/>
<path d="M2032 2818 c6 -43 179 -95 443 -133 322 -46 514 -55 730 -35 123 12
383 60 490 92 77 22 218 78 212 84 -2 2 -41 -4 -88 -13 -70 -14 -156 -18 -514
-20 -236 -1 -554 -5 -705 -9 -286 -7 -359 -1 -504 42 -65 18 -68 18 -64 -8z"/>
<path d="M3928 2814 c-109 -57 -303 -114 -531 -156 -107 -20 -156 -22 -402
-23 -220 0 -307 4 -408 18 -71 11 -131 17 -133 14 -3 -2 26 -12 63 -21 97 -25
325 -37 743 -39 l365 -2 152 38 c83 21 159 44 168 50 12 10 15 26 13 74 l-3
61 -27 -14z"/>
<path d="M2030 2700 l0 -60 188 0 c103 0 205 -3 227 -6 62 -10 30 10 -55 34
-130 36 -341 92 -351 92 -5 0 -9 -27 -9 -60z"/>
<path d="M3850 2644 c-157 -44 -152 -42 -94 -43 28 -1 86 2 128 6 75 6 77 7
74 31 -2 14 -7 26 -13 28 -5 1 -48 -9 -95 -22z"/>
<path d="M2026 2622 c-8 -13 92 -46 184 -61 213 -35 759 -54 915 -32 45 6 39
8 -60 15 -142 9 -312 32 -428 56 -110 23 -599 41 -611 22z"/>
<path d="M2712 2605 c32 -33 554 -58 688 -34 73 13 67 14 -235 20 -170 4 -344
10 -385 14 -41 3 -72 3 -68 0z"/>
<path d="M3540 2575 l-55 -13 45 -2 c25 -2 -4 -6 -65 -11 -60 -5 -166 -16
-235 -26 -226 -32 -775 -20 -1032 23 -50 8 -18 -9 87 -46 l90 -32 415 5 c372
5 559 15 785 42 112 14 361 58 375 67 10 6 2 7 -26 4 -121 -16 -245 -27 -270
-23 -19 3 -12 5 21 6 28 1 70 6 95 10 35 7 21 9 -65 9 -60 0 -135 -6 -165 -13z"/>
<path d="M2020 2531 c0 -39 4 -51 18 -54 16 -4 16 -5 -1 -6 -16 -1 -17 -10
-15 -78 l3 -76 65 -19 c100 -28 285 -65 391 -78 109 -14 133 -11 494 46 239
37 373 62 392 73 7 3 -202 7 -464 9 -262 1 -479 4 -481 7 -3 3 107 6 244 7
137 1 227 3 199 5 -97 7 -391 53 -465 73 -52 14 -113 20 -200 22 l-125 2 105
5 105 6 -65 24 c-36 13 -91 37 -122 52 -32 16 -62 29 -68 29 -5 0 -10 -22 -10
-49z"/>
<path d="M3865 2549 c-304 -62 -898 -107 -1239 -95 -99 3 -177 4 -174 1 16
-16 269 -50 513 -70 368 -29 533 -17 754 55 170 55 241 88 241 111 0 11 -1 18
-2 18 -2 -1 -43 -10 -93 -20z"/>
<path d="M3915 2494 c-16 -8 -55 -25 -85 -39 -30 -14 -46 -23 -35 -21 11 2 55
12 98 21 64 14 77 20 77 36 0 22 -14 23 -55 3z"/>
<path d="M3757 2412 c-92 -19 -165 -37 -163 -39 5 -5 278 14 339 24 31 5 37
10 37 29 0 30 -2 30 -213 -14z"/>
<path d="M3815 2365 c-66 -7 -159 -13 -207 -14 -58 -1 -138 -12 -245 -35 -87
-19 -268 -52 -403 -73 l-245 -38 95 -6 c237 -14 691 14 933 57 48 9 90 14 93
11 6 -6 -139 -33 -281 -51 -235 -31 -416 -38 -750 -32 -210 4 -323 2 -310 -4
11 -5 146 -21 299 -35 249 -23 306 -25 525 -20 135 4 264 11 286 16 22 5 115
37 208 71 l167 62 0 53 c0 49 -2 53 -22 51 -13 0 -77 -7 -143 -13z m62 -91
c-3 -3 -12 -4 -19 -1 -8 3 -5 6 6 6 11 1 17 -2 13 -5z"/>
<path d="M2020 2282 c0 -13 9 -21 28 -25 264 -57 299 -63 382 -58 23 2 -2 9
-70 21 -88 16 -226 49 -317 76 -19 5 -23 2 -23 -14z"/>
<path d="M3854 2208 c-67 -26 -146 -54 -175 -62 -46 -12 -49 -15 -22 -15 30
-1 313 55 321 63 2 2 2 17 0 33 l-3 29 -121 -48z"/>
<path d="M2020 2236 c0 -8 8 -17 18 -20 42 -12 140 -26 181 -25 40 0 32 4 -58
24 -56 14 -112 27 -122 30 -13 4 -19 2 -19 -9z"/>
<path d="M2020 2190 c0 -5 19 -10 43 -9 36 1 38 2 17 9 -36 12 -60 12 -60 0z"/>
<path d="M2310 2171 c26 -16 260 -42 405 -46 130 -4 134 -3 55 6 -47 5 -158
18 -246 29 -177 22 -238 25 -214 11z"/>
<path d="M2043 2163 c-8 -3 -13 -25 -13 -59 l0 -53 53 -15 c114 -32 180 -38
352 -32 223 9 781 54 772 62 -1 2 -117 10 -257 19 -338 20 -443 31 -617 60
-135 23 -260 31 -290 18z"/>
<path d="M3948 2163 c6 -2 18 -2 25 0 6 3 1 5 -13 5 -14 0 -19 -2 -12 -5z"/>
<path d="M3815 2129 c-71 -10 -164 -25 -205 -33 l-75 -14 95 -1 c82 -1 231 15
323 35 29 6 38 35 10 33 -10 -1 -76 -9 -148 -20z"/>
<path d="M2993 2103 c15 -2 39 -2 55 0 15 2 2 4 -28 4 -30 0 -43 -2 -27 -4z"/>
<path d="M3243 2087 c102 -6 174 -6 205 1 36 7 2 10 -158 9 l-205 0 158 -10z"/>
<path d="M3870 2083 c-43 -8 -199 -18 -365 -23 -159 -5 -373 -18 -475 -29
-102 -11 -275 -25 -385 -31 -110 -7 -207 -15 -215 -18 -8 -3 26 -10 75 -16
105 -11 434 3 755 33 113 11 257 22 320 26 195 11 400 45 400 65 0 12 -15 11
-110 -7z"/>
<path d="M3895 2044 c-33 -7 -114 -18 -180 -23 -591 -52 -774 -65 -995 -70
l-255 -6 110 -18 c179 -31 305 -32 525 -8 107 12 293 33 413 46 286 32 467 64
467 82 0 15 -6 15 -85 -3z"/>
<path d="M2030 2011 c0 -19 6 -21 60 -21 33 0 60 2 60 5 0 2 -19 9 -42 15 -24
6 -51 13 -60 16 -13 4 -18 0 -18 -15z"/>
<path d="M3855 1999 c-115 -23 -254 -41 -585 -75 -146 -15 -269 -31 -275 -35
-15 -14 457 -10 617 6 140 13 209 23 326 46 53 11 62 22 46 63 -7 19 -14 19
-129 -5z"/>
<path d="M2026 1947 c-3 -17 -3 -34 1 -38 16 -14 246 -29 438 -29 109 0 196 3
192 6 -3 3 -65 17 -139 30 -73 14 -167 33 -208 43 -48 12 -112 19 -176 19
l-102 0 -6 -31z"/>
<path d="M3900 1914 c-189 -39 -313 -48 -625 -49 -170 0 -391 0 -490 0 -455 0
-586 2 -670 14 -74 10 -90 10 -94 -1 -7 -24 -115 -123 -186 -171 -38 -26 -82
-57 -96 -69 l-26 -23 8 -146 c5 -80 13 -158 18 -172 8 -20 27 -30 103 -56 114
-38 190 -52 478 -92 196 -28 262 -32 510 -36 294 -5 423 1 735 38 376 44 408
50 537 112 100 47 118 59 124 83 4 16 2 85 -4 154 -7 69 -12 148 -12 177 0 51
-1 53 -47 87 -111 82 -142 110 -153 137 -14 32 -17 32 -110 13z"/>
</g>
</svg>
